#Comment line ignore any data following # character 
#Hierarchical Translation and Rotation (.htr) file 
[Header]	
#Header keywords are followed by a single value 
FileType HTR		#Single word string
DataType HTRS		#Translation followed by rotation and scale data
FileVersion 1		#integer
NumSegments 64		#integer
NumFrames 3		#integer
DataFrameRate 30		#integer, data frame rate in this file
EulerRotationOrder ZYX
CalibrationUnits mm
RotationUnits Degrees
GlobalAxisofGravity Y
BoneLengthAxis Y
ScaleFactor 1.00
[SegmentNames&Hierarchy]
#CHILD	PARENT
Pinger_Root GLOBAL
Pelvis Pinger_Root
L_Hip Pelvis
R_Hip Pelvis
Rear_Leg01 Pelvis
Spine1 Pelvis
L_Leg01 L_Hip
L_Leg02 L_Leg01
L_Leg03 L_Leg02
L_Foot L_Leg03
L_Toe1_01 L_Foot
L_Toe2_01 L_Foot
L_Toe3_01 L_Foot
planeAlignerLeft L_Foot
L_Toe1_02 L_Toe1_01
L_Toe1_03 L_Toe1_02
L_Toe2_02 L_Toe2_01
L_Toe2_03 L_Toe2_02
L_Toe3_02 L_Toe3_01
L_Toe3_03 L_Toe3_02
planeLockWeightLeft planeAlignerLeft
R_Leg01 R_Hip
R_Leg02 R_Leg01
R_Leg03 R_Leg02
R_Foot R_Leg03
planeAlignerRight R_Foot
R_Toe1_01 R_Foot
R_Toe2_01 R_Foot
R_Toe3_01 R_Foot
planeLockWeightRight planeAlignerRight
R_Toe1_02 R_Toe1_01
R_Toe1_03 R_Toe1_02
R_Toe2_02 R_Toe2_01
R_Toe2_03 R_Toe2_02
R_Toe3_02 R_Toe3_01
R_Toe3_03 R_Toe3_02
Rear_Leg02 Rear_Leg01
Rear_Leg03 Rear_Leg02
Rear_Leg04 Rear_Leg03
Rear_Foot Rear_Leg04
planeAlignerCenter Rear_Foot
Rear_Toe1_01 Rear_Foot
Rear_Toe2_01 Rear_Foot
Rear_Toe3_01 Rear_Foot
planeLockWeightCenter planeAlignerCenter
Rear_Toe1_02 Rear_Toe1_01
Rear_Toe1_03 Rear_Toe1_02
Rear_Toe2_02 Rear_Toe2_01
Rear_Toe2_03 Rear_Toe2_02
Rear_Toe3_02 Rear_Toe3_01
Rear_Toe3_03 Rear_Toe3_02
Back_Bone Spine1
Head Spine1
Motor_Bone Back_Bone
Ping_Mechanism Back_Bone
BN_LookIK Head
bottomMouth Head
L_Mouth01 Head
L_mouthFront Head
mouthGun Head
R_Mouth01 Head
R_mouthFront Head
TopMouth Head
weapon_bone Head
[BasePosition]
#SegmentName Tx, Ty, Tz, Rx, Ry, Rz, BoneLength
Pinger_Root 0.000000 0.000000 0.000000 -90.000000 0.000000 0.000000 10.000000 
Pelvis 0.000000 0.000000 0.000000 0.000000 0.000000 0.000000 10.000000 
L_Hip 0.000000 0.000000 0.000000 0.000000 0.000000 0.000000 10.000000 
R_Hip 0.000000 0.000000 0.000000 0.000000 0.000000 0.000000 10.000000 
Rear_Leg01 0.000000 0.000000 0.000000 0.000000 0.000000 0.000000 10.000000 
Spine1 0.000000 0.000000 0.000000 0.000000 0.000000 0.000000 10.000000 
L_Leg01 0.000000 0.000000 0.000000 0.000000 0.000000 0.000000 10.000000 
L_Leg02 0.000000 0.000000 0.000000 0.000000 0.000000 0.000000 10.000000 
L_Leg03 0.000000 0.000000 0.000000 0.000000 0.000000 0.000000 10.000000 
L_Foot 0.000000 0.000000 0.000000 0.000000 0.000000 0.000000 10.000000 
L_Toe1_01 0.000000 0.000000 0.000000 0.000000 0.000000 0.000000 10.000000 
L_Toe2_01 0.000000 0.000000 0.000000 0.000000 0.000000 0.000000 10.000000 
L_Toe3_01 0.000000 0.000000 0.000000 0.000000 0.000000 0.000000 10.000000 
planeAlignerLeft 0.000000 0.000000 0.000000 0.000000 0.000000 0.000000 10.000000 
L_Toe1_02 0.000000 0.000000 0.000000 0.000000 0.000000 0.000000 10.000000 
L_Toe1_03 0.000000 0.000000 0.000000 0.000000 0.000000 0.000000 10.000000 
L_Toe2_02 0.000000 0.000000 0.000000 0.000000 0.000000 0.000000 10.000000 
L_Toe2_03 0.000000 0.000000 0.000000 0.000000 0.000000 0.000000 10.000000 
L_Toe3_02 0.000000 0.000000 0.000000 0.000000 0.000000 0.000000 10.000000 
L_Toe3_03 0.000000 0.000000 0.000000 0.000000 0.000000 0.000000 10.000000 
planeLockWeightLeft 0.000000 0.000000 0.000000 0.000000 0.000000 0.000000 10.000000 
R_Leg01 0.000000 0.000000 0.000000 0.000000 0.000000 0.000000 10.000000 
R_Leg02 0.000000 0.000000 0.000000 0.000000 0.000000 0.000000 10.000000 
R_Leg03 0.000000 0.000000 0.000000 0.000000 0.000000 0.000000 10.000000 
R_Foot 0.000000 0.000000 0.000000 0.000000 0.000000 0.000000 10.000000 
planeAlignerRight 0.000000 0.000000 0.000000 0.000000 0.000000 0.000000 10.000000 
R_Toe1_01 0.000000 0.000000 0.000000 0.000000 0.000000 0.000000 10.000000 
R_Toe2_01 0.000000 0.000000 0.000000 0.000000 0.000000 0.000000 10.000000 
R_Toe3_01 0.000000 0.000000 0.000000 0.000000 0.000000 0.000000 10.000000 
planeLockWeightRight 0.000000 0.000000 0.000000 0.000000 0.000000 0.000000 10.000000 
R_Toe1_02 0.000000 0.000000 0.000000 0.000000 0.000000 0.000000 10.000000 
R_Toe1_03 0.000000 0.000000 0.000000 0.000000 0.000000 0.000000 10.000000 
R_Toe2_02 0.000000 0.000000 0.000000 0.000000 0.000000 0.000000 10.000000 
R_Toe2_03 0.000000 0.000000 0.000000 0.000000 0.000000 0.000000 10.000000 
R_Toe3_02 0.000000 0.000000 0.000000 0.000000 0.000000 0.000000 10.000000 
R_Toe3_03 0.000000 0.000000 0.000000 0.000000 0.000000 0.000000 10.000000 
Rear_Leg02 0.000000 0.000000 0.000000 0.000000 0.000000 0.000000 10.000000 
Rear_Leg03 0.000000 0.000000 0.000000 0.000000 0.000000 0.000000 10.000000 
Rear_Leg04 0.000000 0.000000 0.000000 0.000000 0.000000 0.000000 10.000000 
Rear_Foot 0.000000 0.000000 0.000000 0.000000 0.000000 0.000000 10.000000 
planeAlignerCenter 0.000000 0.000000 0.000000 0.000000 0.000000 0.000000 10.000000 
Rear_Toe1_01 0.000000 0.000000 0.000000 0.000000 0.000000 0.000000 10.000000 
Rear_Toe2_01 0.000000 0.000000 0.000000 0.000000 0.000000 0.000000 10.000000 
Rear_Toe3_01 0.000000 0.000000 0.000000 0.000000 0.000000 0.000000 10.000000 
planeLockWeightCenter 0.000000 0.000000 0.000000 0.000000 0.000000 0.000000 10.000000 
Rear_Toe1_02 0.000000 0.000000 0.000000 0.000000 0.000000 0.000000 10.000000 
Rear_Toe1_03 0.000000 0.000000 0.000000 0.000000 0.000000 0.000000 10.000000 
Rear_Toe2_02 0.000000 0.000000 0.000000 0.000000 0.000000 0.000000 10.000000 
Rear_Toe2_03 0.000000 0.000000 0.000000 0.000000 0.000000 0.000000 10.000000 
Rear_Toe3_02 0.000000 0.000000 0.000000 0.000000 0.000000 0.000000 10.000000 
Rear_Toe3_03 0.000000 0.000000 0.000000 0.000000 0.000000 0.000000 10.000000 
Back_Bone 0.000000 0.000000 0.000000 0.000000 0.000000 0.000000 10.000000 
Head 0.000000 0.000000 0.000000 0.000000 0.000000 0.000000 10.000000 
Motor_Bone 0.000000 0.000000 0.000000 0.000000 0.000000 0.000000 10.000000 
Ping_Mechanism 0.000000 0.000000 0.000000 0.000000 0.000000 0.000000 10.000000 
BN_LookIK 0.000000 0.000000 0.000000 0.000000 0.000000 0.000000 10.000000 
bottomMouth 0.000000 0.000000 0.000000 0.000000 0.000000 0.000000 10.000000 
L_Mouth01 0.000000 0.000000 0.000000 0.000000 0.000000 0.000000 10.000000 
L_mouthFront 0.000000 0.000000 0.000000 0.000000 0.000000 0.000000 10.000000 
mouthGun 0.000000 0.000000 0.000000 0.000000 0.000000 0.000000 10.000000 
R_Mouth01 0.000000 0.000000 0.000000 0.000000 0.000000 0.000000 10.000000 
R_mouthFront 0.000000 0.000000 0.000000 0.000000 0.000000 0.000000 10.000000 
TopMouth 0.000000 0.000000 0.000000 0.000000 0.000000 0.000000 10.000000 
weapon_bone 0.000000 0.000000 0.000000 0.000000 0.000000 0.000000 10.000000 
#Beginning of Data. Separated by tabs
#Fr	Tx	Ty	Tz	Rx	Ry	Rz	SF
[Pinger_Root]
113 0.000000 0.000000 0.000000 -0.000069 0.000029 44.999935 0.000000
114 0.000000 0.000000 0.000000 -0.000069 0.000029 44.999935 0.000000
115 0.000000 0.000000 0.000000 -0.000069 0.000029 44.999935 0.000000
[Pelvis]
113 245.431183 854.458313 4428.924316 -100.460144 -85.999435 91.997047 4517.267090
114 245.584854 854.304688 4431.453125 -100.446945 -85.995567 92.034203 4519.726563
115 247.430893 852.458740 4432.334961 -100.434059 -85.991951 92.071587 4520.342773
[L_Hip]
113 5.766392 125.831482 872.656799 160.158691 -45.484905 122.312202 881.701050
114 5.766392 125.831482 872.656799 160.158691 -45.484905 122.312202 881.701050
115 5.766392 125.831482 872.656799 160.158691 -45.484905 122.312202 881.701050
[R_Hip]
113 5.765438 125.836372 -872.654907 38.087841 49.812687 125.703735 881.699829
114 5.765438 125.836372 -872.654907 38.087841 49.812687 125.703735 881.699829
115 5.765438 125.836372 -872.654907 38.087841 49.812687 125.703735 881.699829
[Rear_Leg01]
113 -192.298416 -925.602966 -0.001907 167.167877 -8.157819 -161.221069 945.367432
114 -192.298416 -925.602966 -0.001907 167.216797 -8.189750 -161.222778 945.367432
115 -192.298416 -925.602966 -0.001907 167.265717 -8.221682 -161.224518 945.367432
[Spine1]
113 290.604584 5.007505 0.000477 7.271363 -1.991535 19.091841 290.647736
114 290.604584 5.007505 0.000477 7.269554 -1.896637 19.105162 290.647736
115 290.604584 5.007505 0.000477 7.267764 -1.801737 19.118473 290.647736
[L_Leg01]
113 761.932007 -0.002384 -0.069261 15.610662 -21.473206 -8.163667 761.932068
114 761.932007 -0.002384 -0.069261 15.659472 -21.514101 -8.248200 761.932068
115 761.932007 -0.002384 -0.069261 15.708354 -21.554922 -8.332793 761.932068
[L_Leg02]
113 1441.140503 -0.000954 -0.000715 2.297875 -0.175978 -126.148758 1441.140503
114 1441.140503 -0.000954 -0.000715 2.277265 -0.176152 -125.955452 1441.140503
115 1441.140503 -0.000954 -0.000715 2.256654 -0.176257 -125.762131 1441.140503
[L_Leg03]
113 1686.963989 -0.000715 -0.000954 -0.027427 0.010399 117.833862 1686.963989
114 1686.963989 -0.000715 -0.000954 -0.027429 0.010394 117.813835 1686.963989
115 1686.963989 -0.000715 -0.000954 -0.027431 0.010389 117.793816 1686.963989
[L_Foot]
113 3041.570068 -30.715107 11.297464 10.550226 13.021602 51.950916 3041.746094
114 3041.570068 -30.715107 11.297464 10.556564 13.027677 51.893341 3041.746094
115 3041.570068 -30.715107 11.297464 10.562898 13.033761 51.835770 3041.746094
[L_Toe1_01]
113 -188.216690 -224.732346 -21.137953 93.719086 -6.862507 -171.970444 293.899567
114 -188.216690 -224.732346 -21.137953 93.719086 -6.862507 -171.970444 293.899567
115 -188.216690 -224.732346 -21.137953 93.719086 -6.862507 -171.970444 293.899567
[L_Toe2_01]
113 200.746536 -219.926590 148.838394 -90.024002 -26.311703 -52.677628 332.896027
114 200.746536 -219.926590 148.838394 -90.023987 -26.311703 -52.677635 332.896027
115 200.746536 -219.926590 148.838394 -90.023987 -26.311703 -52.677628 332.896027
[L_Toe3_01]
113 188.832520 -219.859131 -191.078659 -99.790039 13.840300 -67.681404 347.140900
114 188.832520 -219.859131 -191.078659 -99.789909 13.840217 -67.680878 347.140900
115 188.832520 -219.859131 -191.078659 -99.789787 13.840136 -67.680359 347.140900
[planeAlignerLeft]
113 0.812531 -811.448792 -0.314951 0.000000 -90.000000 -90.001900 811.449280
114 0.812531 -811.448792 -0.314951 0.000000 -90.000000 -90.001900 811.449280
115 0.812531 -811.448792 -0.314951 0.000000 -90.000000 -90.001900 811.449280
[L_Toe1_02]
113 413.761139 0.000477 0.000000 0.001384 -25.977816 0.001384 413.761139
114 413.761139 0.000477 0.000000 0.001384 -25.980007 0.001384 413.761139
115 413.761139 0.000477 0.000000 0.001384 -25.982204 0.001384 413.761139
[L_Toe1_03]
113 464.317322 0.000358 -0.000089 0.003734 53.359097 0.003734 464.317322
114 464.317322 0.000358 -0.000089 0.003734 53.359097 0.003734 464.317322
115 464.317322 0.000358 -0.000089 0.003734 53.359097 0.003734 464.317322
[L_Toe2_02]
113 342.235809 -0.000477 0.000238 0.001188 -72.402016 0.001188 342.235809
114 342.235809 -0.000477 0.000238 0.001188 -72.402016 0.001188 342.235809
115 342.235809 -0.000477 0.000238 0.001188 -72.402016 0.001188 342.235809
[L_Toe2_03]
113 420.210846 -0.000715 0.000000 0.029090 85.375565 0.029090 420.210846
114 420.210846 -0.000715 0.000000 0.029090 85.375511 0.029090 420.210846
115 420.210846 -0.000715 0.000000 0.029090 85.375511 0.029090 420.210846
[L_Toe3_02]
113 329.270111 0.000954 0.000000 0.001178 -80.476280 0.001178 329.270111
114 329.270111 0.000954 0.000000 0.001178 -80.476616 0.001178 329.270111
115 329.270111 0.000954 0.000000 0.001178 -80.476860 0.001178 329.270111
[L_Toe3_03]
113 439.137451 -0.001907 0.000954 -179.995956 78.613564 -179.992447 439.137451
114 439.137451 -0.001907 0.000954 -179.995956 78.613091 -179.992447 439.137451
115 439.137451 -0.001907 0.000954 -179.995956 78.612595 -179.992447 439.137451
[planeLockWeightLeft]
113 -0.000954 0.000238 -0.000305 -0.011826 -0.004376 0.005620 0.001029
114 -0.000954 0.000238 -0.000305 -0.011826 -0.004376 0.005620 0.001029
115 -0.000954 0.000238 -0.000305 -0.011826 -0.004376 0.005620 0.001029
[R_Leg01]
113 761.455627 -0.001907 -0.000358 118.113251 -0.819864 37.879990 761.455688
114 761.455627 -0.001907 -0.000358 118.170036 -0.767714 37.912708 761.455688
115 761.455627 -0.001907 -0.000358 118.226860 -0.715592 37.945477 761.455688
[R_Leg02]
113 1441.140625 0.000000 -0.000238 -1.509379 -0.276668 -123.682503 1441.140625
114 1441.140625 0.000000 -0.000238 -1.507417 -0.276654 -123.592735 1441.140625
115 1441.140625 0.000000 -0.000238 -1.505454 -0.276643 -123.502960 1441.140625
[R_Leg03]
113 1686.963989 0.000954 0.001431 0.081774 -0.046990 132.709091 1686.963989
114 1686.963989 0.000954 0.001431 0.081800 -0.046945 132.645874 1686.963989
115 1686.963989 0.000954 0.001431 0.081826 -0.046900 132.582642 1686.963989
[R_Foot]
113 3041.560059 -30.531288 -11.204481 1.700812 -24.828173 65.803154 3041.734131
114 3041.560059 -30.531288 -11.204481 1.688497 -24.831038 65.766830 3041.734131
115 3041.560059 -30.531288 -11.204481 1.676183 -24.833908 65.730499 3041.734131
[planeAlignerRight]
113 -0.635147 -812.270569 -0.364304 0.000000 -89.960434 -90.005180 812.270874
114 -0.635147 -812.270569 -0.364304 0.000000 -89.960434 -90.005180 812.270874
115 -0.635147 -812.270569 -0.364304 0.000000 -89.960434 -90.005180 812.270874
[R_Toe1_01]
113 -188.383347 -224.864899 21.052242 76.762291 -0.406715 -172.765640 294.101532
114 -188.383347 -224.864899 21.052242 76.762367 -0.407015 -172.763565 294.101532
115 -188.383347 -224.864899 21.052242 76.762444 -0.407315 -172.761490 294.101532
[R_Toe2_01]
113 200.637817 -220.002121 -148.787384 -91.732048 32.883614 -59.152992 332.857574
114 200.637817 -220.002121 -148.787384 -91.732758 32.882999 -59.154816 332.857574
115 200.637817 -220.002121 -148.787384 -91.733467 32.882401 -59.156651 332.857574
[R_Toe3_01]
113 188.606735 -220.092957 191.126343 -73.228004 -8.453342 -73.755081 347.192566
114 188.606735 -220.092957 191.126343 -73.227867 -8.453560 -73.755135 347.192566
115 188.606735 -220.092957 191.126343 -73.227753 -8.453784 -73.755219 347.192566
[planeLockWeightRight]
113 -0.000477 0.000000 0.000000 -0.011823 -0.004379 -0.000027 0.000477
114 -0.000477 0.000000 0.000000 -0.011823 -0.004379 -0.000027 0.000477
115 -0.000477 0.000000 0.000000 -0.011823 -0.004379 -0.000027 0.000477
[R_Toe1_02]
113 413.762085 0.000477 -0.000119 0.001394 -24.662373 0.001394 413.762085
114 413.762085 0.000477 -0.000119 0.001394 -24.662191 0.001394 413.762085
115 413.762085 0.000477 -0.000119 0.001394 -24.662010 0.001394 413.762085
[R_Toe1_03]
113 464.317810 0.000000 0.001088 0.006627 69.599586 0.006627 464.317810
114 464.317810 0.000000 0.001088 0.006627 69.599182 0.006627 464.317810
115 464.317810 0.000000 0.001088 0.006627 69.598793 0.006627 464.317810
[R_Toe2_02]
113 342.234741 -0.000954 0.000238 0.001197 -67.209366 0.001197 342.234741
114 342.234741 -0.000954 0.000238 0.001197 -67.210114 0.001197 342.234741
115 342.234741 -0.000954 0.000238 0.001197 -67.210854 0.001197 342.234741
[R_Toe2_03]
113 420.210846 0.000715 -0.000268 0.008225 73.593521 0.008225 420.210846
114 420.210846 0.000715 -0.000268 0.008226 73.595085 0.008226 420.210846
115 420.210846 0.000715 -0.000268 0.008227 73.596642 0.008227 420.210846
[R_Toe3_02]
113 329.270355 -0.000477 -0.000954 0.001184 -74.515785 0.001184 329.270355
114 329.270355 -0.000477 -0.000954 0.001184 -74.515968 0.001184 329.270355
115 329.270355 -0.000477 -0.000954 0.001184 -74.516151 0.001184 329.270355
[R_Toe3_03]
113 439.137939 0.000238 0.001431 -0.011584 83.297791 -0.008081 439.137939
114 439.137939 0.000238 0.001431 -0.011584 83.298378 -0.008082 439.137939
115 439.137939 0.000238 0.001431 -0.011585 83.298935 -0.008083 439.137939
[Rear_Leg02]
113 1162.777710 -0.029802 0.005960 0.994095 -2.812422 -131.166718 1162.777710
114 1162.777710 -0.029802 0.005960 0.990262 -2.813820 -131.099640 1162.777710
115 1162.777710 -0.029802 0.005960 0.986428 -2.815214 -131.032516 1162.777710
[Rear_Leg03]
113 607.192505 -0.013351 -0.073195 0.010542 -0.005003 67.132996 607.192505
114 607.192505 -0.013351 -0.073195 0.010543 -0.005000 67.104912 607.192505
115 607.192505 -0.013351 -0.073195 0.010544 -0.004998 67.076836 607.192505
[Rear_Leg04]
113 995.874512 -0.020504 -0.011921 -0.043845 -0.017309 63.978798 995.874573
114 995.874512 -0.020504 -0.011921 -0.043839 -0.017322 63.943069 995.874573
115 995.874512 -0.020504 -0.011921 -0.043834 -0.017336 63.907333 995.874573
[Rear_Foot]
113 3096.176270 -0.067472 -0.041425 -168.866730 76.374046 19.343040 3096.176270
114 3096.176270 -0.067472 -0.041425 -168.867218 76.369553 19.338446 3096.176270
115 3096.176270 -0.067472 -0.041425 -168.867706 76.365082 19.333878 3096.176270
[planeAlignerCenter]
113 0.350077 0.966311 -838.790894 0.000009 0.000003 -179.999985 838.791565
114 0.350077 0.966311 -838.790894 0.000009 0.000003 -179.999985 838.791565
115 0.350077 0.966311 -838.790894 0.000009 0.000003 -179.999985 838.791565
[Rear_Toe1_01]
113 0.653352 83.966492 -371.173737 0.294586 41.907551 90.410645 380.553192
114 0.653352 83.966492 -371.173737 0.294598 41.907505 90.410683 380.553192
115 0.653352 83.966492 -371.173737 0.294607 41.907440 90.410706 380.553192
[Rear_Toe2_01]
113 178.200760 -294.826019 -362.060547 -7.200252 34.403812 -66.272041 499.765686
114 178.200760 -294.826019 -362.060547 -7.200287 34.403793 -66.272049 499.765686
115 178.200760 -294.826019 -362.060547 -7.200318 34.403770 -66.272041 499.765686
[Rear_Toe3_01]
113 -153.359680 -308.780914 -362.060852 3.290266 33.511780 -112.542130 499.952881
114 -153.359680 -308.780914 -362.060852 3.290273 33.511723 -112.542145 499.952881
115 -153.359680 -308.780914 -362.060852 3.290279 33.511665 -112.542145 499.952881
[planeLockWeightCenter]
113 -0.000062 0.000238 0.000000 -0.011814 -0.004373 -0.000015 0.000246
114 -0.000062 0.000238 0.000000 -0.011814 -0.004373 -0.000015 0.000246
115 -0.000062 0.000238 0.000000 -0.011814 -0.004373 -0.000015 0.000246
[Rear_Toe1_02]
113 379.707825 0.194073 0.000477 -0.000242 -31.681246 0.006934 379.707855
114 379.707825 0.194073 0.000477 -0.000242 -31.681284 0.006934 379.707855
115 379.707825 0.194073 0.000477 -0.000242 -31.681320 0.006934 379.707855
[Rear_Toe1_03]
113 500.129700 0.165701 0.000119 -0.000102 51.916916 0.007296 500.129761
114 500.129700 0.165701 0.000119 -0.000102 51.917046 0.007296 500.129761
115 500.129700 0.165701 0.000119 -0.000102 51.917175 0.007296 500.129761
[Rear_Toe2_02]
113 340.494507 0.000238 -0.000954 0.001192 -69.859787 0.001192 340.494507
114 340.494507 0.000238 -0.000954 0.001192 -69.859833 0.001192 340.494507
115 340.494507 0.000238 -0.000954 0.001192 -69.859901 0.001192 340.494507
[Rear_Toe2_03]
113 433.103577 0.000000 0.000238 0.006697 69.815613 0.006697 433.103546
114 433.103577 0.000000 0.000238 0.006697 69.815659 0.006697 433.103546
115 433.103577 0.000000 0.000238 0.006697 69.815697 0.006697 433.103546
[Rear_Toe3_02]
113 340.494141 -0.000358 -0.000477 0.008290 -67.279877 -0.009462 340.494171
114 340.494141 -0.000358 -0.000477 0.008290 -67.279938 -0.009462 340.494171
115 340.494141 -0.000358 -0.000477 0.008290 -67.279976 -0.009462 340.494171
[Rear_Toe3_03]
113 433.103577 0.001431 -0.000238 -0.000972 65.958984 -0.004547 433.103546
114 433.103577 0.001431 -0.000238 -0.000972 65.959007 -0.004547 433.103546
115 433.103577 0.001431 -0.000238 -0.000972 65.958984 -0.004547 433.103546
[Back_Bone]
113 1312.175781 -701.934692 0.000954 0.000023 -0.000007 -85.606667 1488.125488
114 1312.175781 -701.934692 0.000954 0.000023 -0.000007 -85.606667 1488.125488
115 1312.175781 -701.934692 0.000954 0.000023 -0.000007 -85.606667 1488.125488
[Head]
113 1406.159424 809.709290 0.001431 0.000625 -1.475623 7.768026 1622.625488
114 1406.159424 809.709290 0.001431 0.000625 -1.475624 7.768028 1622.625488
115 1406.159424 809.709290 0.001431 0.000625 -1.475623 7.768025 1622.625488
[Motor_Bone]
113 1158.364380 -417.834747 0.000477 -0.104895 0.071386 -105.915710 1231.419434
114 1158.364380 -417.834747 0.000477 -0.104301 0.071681 -105.915703 1231.419434
115 1158.364380 -417.834747 0.000477 -0.103706 0.071976 -105.915703 1231.419434
[Ping_Mechanism]
113 1233.748779 -441.765808 -0.369399 0.000103 -0.000053 82.120995 1310.455322
114 1233.748657 -441.765961 -0.366257 0.000103 -0.000053 82.120995 1310.455322
115 1233.748657 -441.766113 -0.363114 0.000103 -0.000053 82.120995 1310.455322
[BN_LookIK]
113 193.241119 1380.371704 -0.002861 0.000000 89.965736 -31.038179 1393.832153
114 193.241119 1380.371704 -0.002861 0.000000 89.965736 -31.038179 1393.832153
115 193.241119 1380.371704 -0.002861 0.000000 89.965736 -31.038179 1393.832153
[bottomMouth]
113 -435.092926 615.759399 -0.000954 -0.000022 0.000016 73.527184 753.966492
114 -435.092926 615.759399 -0.000954 -0.000022 0.000016 73.527184 753.966492
115 -435.092926 615.759399 -0.000954 -0.000022 0.000016 73.527184 753.966492
[L_Mouth01]
113 554.440979 7.658243 838.222046 150.204178 23.759130 109.605339 1005.027161
114 554.440979 7.658243 838.222046 150.204178 23.759130 109.605339 1005.027161
115 554.440979 7.658243 838.222046 150.204178 23.759130 109.605339 1005.027161
[L_mouthFront]
113 551.629089 934.514771 339.150421 0.000081 2.804060 79.119301 1136.941284
114 551.629089 934.514771 339.150421 0.000081 2.804060 79.119301 1136.941284
115 551.629089 934.514771 339.150421 0.000081 2.804060 79.119301 1136.941284
[mouthGun]
113 55.332661 1627.420898 0.000000 0.000023 0.000009 -11.038128 1628.361328
114 55.332661 1627.420898 0.000000 0.000023 0.000009 -11.038128 1628.361328
115 55.332661 1627.420898 0.000000 0.000023 0.000009 -11.038128 1628.361328
[R_Mouth01]
113 554.442383 7.659197 -838.223938 29.795891 -23.759109 109.605331 1005.029541
114 554.442383 7.659197 -838.223938 29.795891 -23.759109 109.605331 1005.029541
115 554.442383 7.659197 -838.223938 29.795891 -23.759109 109.605331 1005.029541
[R_mouthFront]
113 551.629089 934.514282 -339.151367 0.000029 -2.803930 79.119133 1136.941162
114 551.629089 934.514282 -339.151367 0.000029 -2.803930 79.119133 1136.941162
115 551.629089 934.514282 -339.151367 0.000029 -2.803930 79.119133 1136.941162
[TopMouth]
113 461.269867 -56.106091 -0.008583 -0.000059 -0.000268 92.025169 464.669525
114 461.269867 -56.106091 -0.008583 -0.000059 -0.000268 92.025169 464.669525
115 461.269867 -56.106091 -0.008583 -0.000059 -0.000268 92.025169 464.669525
[weapon_bone]
113 -987.239868 1448.372803 0.001431 0.000000 89.965736 -31.038221 1752.833740
114 -987.239868 1448.372803 0.001431 0.000000 89.965736 -31.038221 1752.833740
115 -987.239868 1448.372803 0.001431 0.000000 89.965736 -31.038221 1752.833740
